
<svg xmlns="http://www.w3.org/2000/svg" version="1.1" xmlns:xlink="http://www.w3.org/1999/xlink" preserveAspectRatio="none" x="0px" y="0px" width="200px" height="200px" viewBox="0 0 200 200">
<defs>
<path id="Layer0_0_1_STROKES" stroke="#F3F3F3" stroke-width="8" stroke-linejoin="round" stroke-linecap="round" fill="none" d="
M 10 10
L 10 190 190 190 190 10 10 10 Z
M 140 70
L 110 70
M 140 50
L 120 50
M 140 30
L 110 30
M 70 30
L 30 30 30 80 70 80 70 30 Z
M 170 150
L 120 150
M 170 130
L 80 130
M 170 110
L 110 110
M 170 70
L 160 70
M 170 50
L 160 50
M 170 30
L 160 30"/>
</defs>

<g transform="matrix( 1, 0, 0, 1, 0,0) ">
<use xlink:href="#Layer0_0_1_STROKES"/>
</g>
</svg>
