
<svg xmlns="http://www.w3.org/2000/svg" version="1.1" xmlns:xlink="http://www.w3.org/1999/xlink" preserveAspectRatio="none" x="0px" y="0px" width="200px" height="200px" viewBox="0 0 200 200">
<defs>
<g id="Layer0_0_FILL">
<path fill="#FFFFFF" stroke="none" d="
M 63.05 85.25
Q 63.05 74.8 71.6 74.6
L 71.6 67.75
Q 55.1 67.95 55.1 84.6
L 55.1 100.3
Q 55.1 111.35 46.75 111.9
L 46.75 118.1
Q 55.1 118.65 55.1 129.5
L 55.1 145.6
Q 55.1 162.05 71.6 162.25
L 71.6 155.5
Q 66.9 155.4 65 152.85 63.05 150.3 63.05 144.3
L 63.05 128.8
Q 63.05 117.45 55 115.05
L 55 114.85
Q 63.05 112.25 63.05 101
L 63.05 85.25
M 145.15 84.6
Q 145.15 67.95 128.7 67.75
L 128.7 74.6
Q 137.3 74.8 137.3 85.25
L 137.3 101
Q 137.3 112.25 145.3 114.85
L 145.3 115.05
Q 137.3 117.45 137.3 128.8
L 137.3 144.3
Q 137.3 150.25 135.35 152.8 133.35 155.4 128.7 155.5
L 128.7 162.25
Q 145.15 162.05 145.15 145.6
L 145.15 129.5
Q 145.15 118.65 153.5 118.1
L 153.5 111.9
Q 145.15 111.35 145.15 100.3
L 145.15 84.6 Z"/>
</g>

<path id="Layer1_0_1_STROKES" stroke="#F3F3F3" stroke-width="8" stroke-linejoin="round" stroke-linecap="round" fill="none" d="
M 174.5 24
L 164.5 24
M 10 40
L 10 10 190 10 190 40 190 190 10 190 10 40 190 40
M 149 24
L 139 24
M 25 24
L 57 24"/>
</defs>

<g transform="matrix( 1, 0, 0, 1, 0,0) ">
<use xlink:href="#Layer1_0_1_STROKES"/>
</g>

<g transform="matrix( 1, 0, 0, 1, 0,0) ">
<use xlink:href="#Layer0_0_FILL"/>
</g>
</svg>
